<?xml version="1.0" encoding="UTF-8" standalone="no"?>
<!-- Created with Inkscape (http://www.inkscape.org/) -->

<svg
   xmlns:dc="http://purl.org/dc/elements/1.1/"
   xmlns:cc="http://creativecommons.org/ns#"
   xmlns:rdf="http://www.w3.org/1999/02/22-rdf-syntax-ns#"
   xmlns:svg="http://www.w3.org/2000/svg"
   xmlns="http://www.w3.org/2000/svg"
   xmlns:xlink="http://www.w3.org/1999/xlink"
   xmlns:sodipodi="http://sodipodi.sourceforge.net/DTD/sodipodi-0.dtd"
   xmlns:inkscape="http://www.inkscape.org/namespaces/inkscape"
   width="90.190491mm"
   height="96.879951mm"
   viewBox="0 0 90.19049 96.879951"
   version="1.1"
   id="svg8"
   sodipodi:docname="milk.svg"
   inkscape:version="0.92.5 (0.92.5+69)">
  <defs
     id="defs2">
    <linearGradient
       inkscape:collect="always"
       id="linearGradient3047">
      <stop
         style="stop-color:#708cb7;stop-opacity:1"
         offset="0"
         id="stop3043" />
      <stop
         style="stop-color:#95bbff;stop-opacity:1"
         offset="1"
         id="stop3045" />
    </linearGradient>
    <linearGradient
       inkscape:collect="always"
       id="linearGradient3041">
      <stop
         style="stop-color:#5d75a7;stop-opacity:1"
         offset="0"
         id="stop3037" />
      <stop
         style="stop-color:#b6e4f4;stop-opacity:1"
         offset="1"
         id="stop3039" />
    </linearGradient>
    <linearGradient
       id="linearGradient3035"
       inkscape:collect="always">
      <stop
         id="stop3031"
         offset="0"
         style="stop-color:#7694d4;stop-opacity:1" />
      <stop
         id="stop3033"
         offset="1"
         style="stop-color:#ccffff;stop-opacity:1" />
    </linearGradient>
    <linearGradient
       inkscape:collect="always"
       id="linearGradient2999">
      <stop
         style="stop-color:#8eb2ff;stop-opacity:1"
         offset="0"
         id="stop2995" />
      <stop
         style="stop-color:#ccffff;stop-opacity:1"
         offset="1"
         id="stop2997" />
    </linearGradient>
    <inkscape:path-effect
       effect="powerstroke"
       id="path-effect872"
       is_visible="true"
       offset_points="0,-5.40421"
       sort_points="true"
       interpolator_type="CubicBezierJohan"
       interpolator_beta="0.2"
       start_linecap_type="zerowidth"
       linejoin_type="extrp_arc"
       miter_limit="4"
       end_linecap_type="zerowidth" />
    <linearGradient
       inkscape:collect="always"
       xlink:href="#linearGradient3047"
       id="linearGradient2993"
       x1="103.37649"
       y1="95.916656"
       x2="85.469421"
       y2="108.47833"
       gradientUnits="userSpaceOnUse" />
    <linearGradient
       inkscape:collect="always"
       xlink:href="#linearGradient2999"
       id="linearGradient3001"
       x1="78.066612"
       y1="135.75577"
       x2="98.043259"
       y2="135.75577"
       gradientUnits="userSpaceOnUse" />
    <linearGradient
       inkscape:collect="always"
       xlink:href="#linearGradient3035"
       id="linearGradient3009"
       x1="115.91816"
       y1="131.84186"
       x2="97.859077"
       y2="133.71275"
       gradientUnits="userSpaceOnUse" />
    <linearGradient
       inkscape:collect="always"
       xlink:href="#linearGradient3041"
       id="linearGradient3017"
       x1="103.37649"
       y1="95.916656"
       x2="102.46986"
       y2="110.39263"
       gradientUnits="userSpaceOnUse" />
    <linearGradient
       inkscape:collect="always"
       xlink:href="#linearGradient3047"
       id="linearGradient3025"
       x1="98.07325"
       y1="91.0205"
       x2="97.596786"
       y2="94.361366"
       gradientUnits="userSpaceOnUse" />
    <filter
       inkscape:collect="always"
       style="color-interpolation-filters:sRGB"
       id="filter3206"
       x="-0.074060164"
       width="1.1481203"
       y="-0.18434671"
       height="1.3686934">
      <feGaussianBlur
         inkscape:collect="always"
         stdDeviation="2.7901584"
         id="feGaussianBlur3208" />
    </filter>
  </defs>
  <sodipodi:namedview
     id="base"
     pagecolor="#ffffff"
     bordercolor="#666666"
     borderopacity="1.0"
     inkscape:pageopacity="0.0"
     inkscape:pageshadow="2"
     inkscape:zoom="0.98994949"
     inkscape:cx="112.11904"
     inkscape:cy="132.6255"
     inkscape:document-units="mm"
     inkscape:current-layer="layer1"
     showgrid="false"
     inkscape:window-width="1920"
     inkscape:window-height="1016"
     inkscape:window-x="0"
     inkscape:window-y="27"
     inkscape:window-maximized="1"
     inkscape:snap-intersection-paths="true"
     inkscape:snap-smooth-nodes="false"
     inkscape:object-paths="false"
     fit-margin-top="0"
     fit-margin-left="0"
     fit-margin-right="0"
     fit-margin-bottom="0" />
  <metadata
     id="metadata5">
    <rdf:RDF>
      <cc:Work
         rdf:about="">
        <dc:format>image/svg+xml</dc:format>
        <dc:type
           rdf:resource="http://purl.org/dc/dcmitype/StillImage" />
        <dc:title></dc:title>
      </cc:Work>
    </rdf:RDF>
  </metadata>
  <g
     inkscape:label="Layer 1"
     inkscape:groupmode="layer"
     id="layer1"
     transform="translate(-65.157356,-87.895222)">
    <path
       style="opacity:0.64600004;fill:#4d4d4d;fill-opacity:1;stroke:#b3b3b3;stroke-width:0.13712849;stroke-linejoin:round;stroke-miterlimit:4;stroke-dasharray:none;stroke-opacity:1;filter:url(#filter3206)"
       d="m 87.396753,185.65327 -0.03772,-1.78216 -8.914701,-6.79777 -1.53612,-21.21479 20.757168,-6.5302 18.92597,3.74604 3.36242,21.8587 -16.57763,6.99649 0.12402,1.74499 z"
       id="path3089"
       inkscape:connector-curvature="0"
       transform="matrix(1,1.7611544e-7,0.82001037,0.6996341,-125.52259,50.200778)"
       sodipodi:nodetypes="cccccccccc" />
    <path
       inkscape:connector-curvature="0"
       d="m 115.84445,104.29861 -18.92583,7.96818 0.746894,52.99825 18.925836,-7.96818 z"
       style="fill:url(#linearGradient3009);fill-opacity:1;stroke:#b3b3b3;stroke-width:0.2;stroke-linejoin:round;stroke-miterlimit:4;stroke-dasharray:none;stroke-opacity:1"
       inkscape:label="Face:0"
       id="path820" />
    <path
       inkscape:connector-curvature="0"
       d="m 96.91862,112.26679 -18.474262,-6.02029 0.746894,52.99825 18.474262,6.02029 z"
       style="fill:url(#linearGradient3001);fill-opacity:1;stroke:#b3b3b3;stroke-width:0.2;stroke-linejoin:round;stroke-miterlimit:4;stroke-dasharray:none;stroke-opacity:1"
       inkscape:label="Face:3"
       id="path828" />
    <path
       style="fill:url(#linearGradient3017);fill-opacity:1;fill-rule:evenodd;stroke:#b3b3b3;stroke-width:0.2;stroke-linecap:butt;stroke-linejoin:miter;stroke-miterlimit:4;stroke-dasharray:none;stroke-opacity:1"
       d="m 96.91862,112.26679 6.45787,-16.350134 12.46796,8.381954 -18.92583,7.96818"
       id="path874"
       inkscape:connector-curvature="0"
       sodipodi:nodetypes="cccc" />
    <path
       style="fill:url(#linearGradient2993);fill-opacity:1;fill-rule:evenodd;stroke:#b3b3b3;stroke-width:0.2;stroke-linecap:butt;stroke-linejoin:miter;stroke-miterlimit:4;stroke-dasharray:none;stroke-opacity:1"
       d="M 103.37649,95.916656 87.359072,91.786247 78.444356,106.2465 96.91862,112.26679 103.37649,95.916656"
       id="path878"
       inkscape:connector-curvature="0"
       sodipodi:nodetypes="ccccc" />
    <g
       id="g2818"
       transform="matrix(0.8148851,0,0,0.84255097,-36.981601,18.731813)">
      <path
         transform="scale(0.26458333)"
         id="path885"
         d="m 571.42773,366.80469 v 11.71679 a 19.999999,6.4285712 0 0 0 20,6.42969 19.999999,6.4285712 0 0 0 20,-6.42969 v -11.71679 z"
         style="fill:#ff0000;fill-rule:evenodd;stroke:#000000;stroke-width:0.99999994px;stroke-linecap:butt;stroke-linejoin:miter;stroke-opacity:1"
         inkscape:connector-curvature="0" />
      <path
         inkscape:connector-curvature="0"
         id="rect2690"
         d="m 151.19025,97.050406 v 3.024564 a 5.2916663,1.659469 0 0 0 0.11783,0.34486 v -3.369424 z m 0.32246,0 v 3.589244 a 5.2916663,1.659469 0 0 0 0.20051,0.15025 v -3.739494 z m 0.40566,0 v 3.861504 a 5.2916663,1.659469 0 0 0 0.20051,0.10235 v -3.963854 z m 0.40515,0 v 4.048054 a 5.2916663,1.659469 0 0 0 0.2005,0.0761 v -4.124184 z m 0.40566,0 v 4.193254 a 5.2916663,1.659469 0 0 0 0.2005,0.059 v -4.252244 z m 0.40514,0 v 4.308714 a 5.2916663,1.659469 0 0 0 0.2005,0.0479 v -4.356614 z m 0.40566,0 v 4.402494 a 5.2916663,1.659469 0 0 0 0.20051,0.0398 v -4.442324 z m 0.40514,0 v 4.479124 a 5.2916663,1.659469 0 0 0 0.20051,0.0338 v -4.512904 z m 0.40566,0 v 4.541644 a 5.2916663,1.659469 0 0 0 0.20051,0.0282 v -4.569874 z m 0.40515,0 v 4.591554 a 5.2916663,1.659469 0 0 0 0.2005,0.0207 v -4.612234 z m 0.40566,0 v 4.630384 a 5.2916663,1.659469 0 0 0 0.2005,0.0141 v -4.644494 z m 0.40514,0 v 4.659114 a 5.2916663,1.659469 0 0 0 0.2005,0.008 v -4.667184 z m 0.40566,0 v 4.675254 a 5.2916663,1.659469 0 0 0 0.20051,0.006 v -4.680794 z m 0.40514,0 v 4.683324 a 5.2916663,1.659469 0 0 0 0.10439,0.001 5.2916663,1.659469 0 0 0 0.0961,-0.002 v -4.682814 z m 0.40566,0 v 4.679784 a 5.2916663,1.659469 0 0 0 0.20051,-0.003 v -4.676764 z m 0.40515,0 v 4.667684 a 5.2916663,1.659469 0 0 0 0.2005,-0.01 v -4.658114 z m 0.40566,0 v 4.646004 a 5.2916663,1.659469 0 0 0 0.2005,-0.0156 v -4.630384 z m 0.40514,0 v 4.613744 a 5.2916663,1.659469 0 0 0 0.2005,-0.0212 v -4.592564 z m 0.40566,0 v 4.568874 a 5.2916663,1.659469 0 0 0 0.2005,-0.0252 v -4.543664 z m 0.40514,0 v 4.512904 a 5.2916663,1.659469 0 0 0 0.20051,-0.0307 v -4.482154 z m 0.40566,0 v 4.443334 a 5.2916663,1.659469 0 0 0 0.20051,-0.0388 v -4.404504 z m 0.40515,0 v 4.358624 a 5.2916663,1.659469 0 0 0 0.2005,-0.0479 v -4.310734 z m 0.40566,0 v 4.254764 a 5.2916663,1.659469 0 0 0 0.2005,-0.0585 v -4.196284 z m 0.40514,0 v 4.126204 a 5.2916663,1.659469 0 0 0 0.2005,-0.0716 v -4.054604 z m 0.40566,0 v 3.964354 a 5.2916663,1.659469 0 0 0 0.2005,-0.0988 v -3.865544 z m 0.40514,0 v 3.746554 a 5.2916663,1.659469 0 0 0 0.20051,-0.14773 v -3.598824 z m 0.40566,0 v 3.374974 a 5.2916663,1.659469 0 0 0 0.12557,-0.35041 v -3.024564 z"
         style="color:#000000;clip-rule:nonzero;display:inline;overflow:visible;visibility:visible;opacity:1;isolation:auto;mix-blend-mode:normal;color-interpolation:sRGB;color-interpolation-filters:linearRGB;solid-color:#000000;solid-opacity:1;fill:#800000;fill-opacity:1;fill-rule:nonzero;stroke:none;stroke-width:0.54336047;stroke-linecap:butt;stroke-linejoin:round;stroke-miterlimit:4;stroke-dasharray:none;stroke-dashoffset:0;stroke-opacity:1;color-rendering:auto;image-rendering:auto;shape-rendering:auto;text-rendering:auto;enable-background:accumulate" />
      <path
         id="path880"
         d="m 161.7738,97.050583 a 5.2916665,1.7008928 0 0 1 -5.29167,1.700893 5.2916665,1.7008928 0 0 1 -5.29166,-1.700893 5.2916665,1.7008928 0 0 1 5.29166,-1.700893 5.2916665,1.7008928 0 0 1 5.29167,1.700893 z"
         style="fill:#ff0000;fill-rule:evenodd;stroke:#000000;stroke-width:0.26458332px;stroke-linecap:butt;stroke-linejoin:miter;stroke-opacity:1"
         inkscape:connector-curvature="0" />
    </g>
    <path
       style="fill:url(#linearGradient3025);fill-opacity:1;fill-rule:evenodd;stroke:#b3b3b3;stroke-width:0.2;stroke-linecap:butt;stroke-linejoin:round;stroke-miterlimit:4;stroke-dasharray:none;stroke-opacity:1"
       d="m 87.359071,91.786246 0.03806,-3.791027 16.102989,4.209497 -0.12363,3.711938 z"
       id="path2820"
       inkscape:connector-curvature="0"
       sodipodi:nodetypes="ccccc" />
    <text
       xml:space="preserve"
       style="color:#000000;font-style:normal;font-variant:normal;font-weight:normal;font-stretch:normal;font-size:8.06514835px;line-height:125%;font-family:Luna;-inkscape-font-specification:Luna;text-indent:0;text-align:start;text-decoration:none;text-decoration-line:none;text-decoration-style:solid;text-decoration-color:#000000;letter-spacing:0px;word-spacing:0px;text-transform:none;writing-mode:lr-tb;direction:ltr;baseline-shift:baseline;text-anchor:start;white-space:normal;clip-rule:nonzero;display:inline;overflow:visible;visibility:visible;opacity:1;isolation:auto;mix-blend-mode:normal;color-interpolation:sRGB;color-interpolation-filters:linearRGB;solid-color:#000000;solid-opacity:1;fill:#000083;fill-opacity:1;fill-rule:nonzero;stroke:none;stroke-width:0.13441914px;stroke-linecap:butt;stroke-linejoin:miter;stroke-miterlimit:4;stroke-dasharray:none;stroke-dashoffset:0;stroke-opacity:1;color-rendering:auto;image-rendering:auto;shape-rendering:auto;text-rendering:auto;enable-background:accumulate"
       x="14.277239"
       y="143.40923"
       id="text3029"
       transform="matrix(0.53383514,-0.74216022,0.53802341,1.1252546,0,0)"><tspan
         sodipodi:role="line"
         id="tspan3027"
         x="14.277239"
         y="143.40923"
         style="fill:#000083;fill-opacity:1;stroke-width:0.13441914px">MILK</tspan></text>
  </g>
</svg>
