<?xml version="1.0" encoding="UTF-8" standalone="no"?>
<!-- Created with Inkscape (http://www.inkscape.org/) -->

<svg
   xmlns:dc="http://purl.org/dc/elements/1.1/"
   xmlns:cc="http://creativecommons.org/ns#"
   xmlns:rdf="http://www.w3.org/1999/02/22-rdf-syntax-ns#"
   xmlns:svg="http://www.w3.org/2000/svg"
   xmlns="http://www.w3.org/2000/svg"
   xmlns:sodipodi="http://sodipodi.sourceforge.net/DTD/sodipodi-0.dtd"
   xmlns:inkscape="http://www.inkscape.org/namespaces/inkscape"
   width="62.604218mm"
   height="58.306026mm"
   viewBox="0 0 62.604218 58.306026"
   version="1.1"
   id="svg8"
   sodipodi:docname="rice.svg"
   inkscape:version="0.92.5 (0.92.5+69)">
  <defs
     id="defs2">
    <filter
       inkscape:collect="always"
       style="color-interpolation-filters:sRGB"
       id="filter864"
       x="-0.046611492"
       width="1.093223"
       y="-0.054858841"
       height="1.1097177">
      <feGaussianBlur
         inkscape:collect="always"
         stdDeviation="3.0214776"
         id="feGaussianBlur866" />
    </filter>
    <filter
       inkscape:collect="always"
       style="color-interpolation-filters:sRGB"
       id="filter889"
       x="-0.066641316"
       width="1.1332825"
       y="-0.10930296"
       height="1.2186059">
      <feGaussianBlur
         inkscape:collect="always"
         stdDeviation="3.7189631"
         id="feGaussianBlur891" />
    </filter>
  </defs>
  <sodipodi:namedview
     id="base"
     pagecolor="#ffffff"
     bordercolor="#666666"
     borderopacity="1.0"
     inkscape:pageopacity="0.0"
     inkscape:pageshadow="2"
     inkscape:zoom="1.979899"
     inkscape:cx="168.0533"
     inkscape:cy="173.2051"
     inkscape:document-units="mm"
     inkscape:current-layer="layer1"
     showgrid="false"
     inkscape:window-width="1920"
     inkscape:window-height="1016"
     inkscape:window-x="0"
     inkscape:window-y="27"
     inkscape:window-maximized="1"
     fit-margin-top="0"
     fit-margin-left="0"
     fit-margin-right="0"
     fit-margin-bottom="0" />
  <metadata
     id="metadata5">
    <rdf:RDF>
      <cc:Work
         rdf:about="">
        <dc:format>image/svg+xml</dc:format>
        <dc:type
           rdf:resource="http://purl.org/dc/dcmitype/StillImage" />
        <dc:title></dc:title>
      </cc:Work>
    </rdf:RDF>
  </metadata>
  <g
     inkscape:label="Layer 1"
     inkscape:groupmode="layer"
     id="layer1"
     transform="translate(-45.062076,-107.0385)">
    <path
       style="fill:#ff0000;fill-rule:evenodd;stroke:#000000;stroke-width:0.99999994px;stroke-linecap:butt;stroke-linejoin:miter;stroke-opacity:1"
       d="m 180.12109,486.33398 c -2.40376,9.2525 -3.64445,18.76861 -3.69336,28.32813 0.0643,48.23189 30.21899,87.29904 75.51954,103.85742 h 79.13085 c 45.23359,-16.61468 75.3115,-55.669 75.34961,-103.85742 -0.0323,-9.55739 -1.25595,-19.07347 -3.64257,-28.32813 -67.99838,24.00292 -141.34435,27.37942 -222.66407,0 z"
       transform="scale(0.26458333)"
       id="path815"
       inkscape:connector-curvature="0"
       sodipodi:nodetypes="ccccccc" />
    <ellipse
       style="fill:#ffaaaa;fill-rule:evenodd;stroke:#000000;stroke-width:0.26458332px;stroke-linecap:butt;stroke-linejoin:miter;stroke-opacity:1"
       id="path849"
       cx="77.075912"
       cy="128.83272"
       rx="29.513371"
       ry="2.7081985" />
    <path
       style="color:#000000;clip-rule:nonzero;display:inline;overflow:visible;visibility:visible;opacity:1;isolation:auto;mix-blend-mode:normal;color-interpolation:sRGB;color-interpolation-filters:linearRGB;solid-color:#000000;solid-opacity:1;fill:#f9f9f9;fill-opacity:1;fill-rule:nonzero;stroke:#000000;stroke-width:0.94488192;stroke-linecap:butt;stroke-linejoin:round;stroke-miterlimit:4;stroke-dasharray:none;stroke-dashoffset:0;stroke-opacity:1;color-rendering:auto;image-rendering:auto;shape-rendering:auto;text-rendering:auto;enable-background:accumulate"
       d="m 297.01562,414.25391 c -10.22845,0.0327 -20.43399,3.15346 -28.51562,9.4414 l -68.6875,53.44141 c -4.55603,3.54484 -7.95457,9.73471 -10.21008,14.24582 74.67146,19.08593 139.07052,20.28949 205.88,-1.30344 -1.86129,-3.31529 -4.3516,-7.721 -7.49023,-10.56348 l -59.16797,-53.58593 c -8.59519,-7.78416 -20.21635,-11.71288 -31.8086,-11.67578 z"
       id="rect841"
       inkscape:connector-curvature="0"
       transform="scale(0.26458333)"
       sodipodi:nodetypes="cccccccc" />
    <path
       style="fill:#dd0000;fill-opacity:1;fill-rule:evenodd;stroke:none;stroke-width:1.000494px;stroke-linecap:butt;stroke-linejoin:miter;stroke-opacity:1;filter:url(#filter864)"
       d="m 180.12109,486.33398 c -2.40376,9.2525 -3.64445,18.76861 -3.69336,28.32813 0.0643,48.23189 30.21899,87.29904 75.51954,103.85742 h 79.13085 c 0.31128,-0.11433 0.614,-0.24097 0.92383,-0.35742 h -47.19726 c -44.60605,-18.57168 -41.18204,-81.99933 -25.1776,-116.59898 -10.15591,-2.51843 -69.09417,-11.7236 -79.506,-15.22915 z"
       transform="matrix(0.26923526,0,0,0.25975499,-0.48611789,2.7973651)"
       id="path851"
       inkscape:connector-curvature="0"
       sodipodi:nodetypes="cccccccc" />
    <path
       style="color:#000000;clip-rule:nonzero;display:inline;overflow:visible;visibility:visible;opacity:1;isolation:auto;mix-blend-mode:normal;color-interpolation:sRGB;color-interpolation-filters:linearRGB;solid-color:#000000;solid-opacity:1;fill:#f6e5d9;fill-opacity:1;fill-rule:nonzero;stroke:none;stroke-width:3;stroke-linecap:butt;stroke-linejoin:round;stroke-miterlimit:4;stroke-dasharray:none;stroke-dashoffset:0;stroke-opacity:1;filter:url(#filter889);color-rendering:auto;image-rendering:auto;shape-rendering:auto;text-rendering:auto;enable-background:accumulate"
       d="M 126.70312,1.5 C 116.47468,1.5327 106.26913,4.6534663 98.1875,10.941406 L 29.5,64.382812 c -4.55603,3.54484 -7.955428,7.734984 -10.210938,12.246094 7.998232,2.477137 64.905949,11.709624 72.752165,13.600365 -5.587088,-28.986284 27.476243,-78.462479 57.900183,-81.2273179 1.09461,-0.0035 2.18869,0.040297 3.28125,0.1074219 C 145.43418,4.0287882 136.0609,1.4700512 126.70312,1.5 Z"
       transform="matrix(0.26458333,0,0,0.26458333,45.062076,109.20773)"
       id="path868"
       inkscape:connector-curvature="0"
       sodipodi:nodetypes="cccccccc" />
  </g>
</svg>
