<?xml version="1.0" encoding="UTF-8" standalone="no"?>
<!-- Created with Inkscape (http://www.inkscape.org/) -->

<svg
   xmlns:dc="http://purl.org/dc/elements/1.1/"
   xmlns:cc="http://creativecommons.org/ns#"
   xmlns:rdf="http://www.w3.org/1999/02/22-rdf-syntax-ns#"
   xmlns:svg="http://www.w3.org/2000/svg"
   xmlns="http://www.w3.org/2000/svg"
   xmlns:sodipodi="http://sodipodi.sourceforge.net/DTD/sodipodi-0.dtd"
   xmlns:inkscape="http://www.inkscape.org/namespaces/inkscape"
   width="44.157871mm"
   height="43.804314mm"
   viewBox="0 0 44.157871 43.804314"
   version="1.1"
   id="svg8"
   inkscape:version="0.92.5 (0.92.5+69)"
   sodipodi:docname="tomatoe.svg">
  <defs
     id="defs2">
    <inkscape:path-effect
       end_linecap_type="zerowidth"
       miter_limit="4"
       linejoin_type="extrp_arc"
       start_linecap_type="zerowidth"
       interpolator_beta="0.2"
       interpolator_type="CubicBezierJohan"
       sort_points="true"
       offset_points="0.48517089,-1.5087789"
       is_visible="true"
       id="path-effect872"
       effect="powerstroke" />
    <inkscape:path-effect
       effect="powerstroke"
       id="path-effect868"
       is_visible="true"
       offset_points="0.48517089,-1.5087789"
       sort_points="true"
       interpolator_type="CubicBezierJohan"
       interpolator_beta="0.2"
       start_linecap_type="zerowidth"
       linejoin_type="extrp_arc"
       miter_limit="4"
       end_linecap_type="zerowidth" />
    <inkscape:path-effect
       end_linecap_type="zerowidth"
       miter_limit="4"
       linejoin_type="extrp_arc"
       start_linecap_type="zerowidth"
       interpolator_beta="0.2"
       interpolator_type="CubicBezierJohan"
       sort_points="true"
       offset_points="0.48517089,-1.5087789"
       is_visible="true"
       id="path-effect864"
       effect="powerstroke" />
    <inkscape:path-effect
       effect="powerstroke"
       id="path-effect860"
       is_visible="true"
       offset_points="0.48517089,-1.5087789"
       sort_points="true"
       interpolator_type="CubicBezierJohan"
       interpolator_beta="0.2"
       start_linecap_type="zerowidth"
       linejoin_type="extrp_arc"
       miter_limit="4"
       end_linecap_type="zerowidth" />
    <inkscape:path-effect
       end_linecap_type="zerowidth"
       miter_limit="4"
       linejoin_type="extrp_arc"
       start_linecap_type="zerowidth"
       interpolator_beta="0.2"
       interpolator_type="CubicBezierJohan"
       sort_points="true"
       offset_points="0.48517089,-1.5087789"
       is_visible="true"
       id="path-effect856"
       effect="powerstroke" />
    <inkscape:path-effect
       effect="powerstroke"
       id="path-effect852"
       is_visible="true"
       offset_points="0.48517089,-1.5087789"
       sort_points="true"
       interpolator_type="CubicBezierJohan"
       interpolator_beta="0.2"
       start_linecap_type="zerowidth"
       linejoin_type="extrp_arc"
       miter_limit="4"
       end_linecap_type="zerowidth" />
    <inkscape:path-effect
       effect="powerstroke"
       id="path-effect848"
       is_visible="true"
       offset_points="0.48517089,-1.5087789"
       sort_points="true"
       interpolator_type="CubicBezierJohan"
       interpolator_beta="0.2"
       start_linecap_type="zerowidth"
       linejoin_type="extrp_arc"
       miter_limit="4"
       end_linecap_type="zerowidth" />
    <inkscape:path-effect
       end_linecap_type="zerowidth"
       miter_limit="4"
       linejoin_type="extrp_arc"
       start_linecap_type="zerowidth"
       interpolator_beta="0.2"
       interpolator_type="CubicBezierJohan"
       sort_points="true"
       offset_points="0.48517089,-1.5087789"
       is_visible="true"
       id="path-effect844"
       effect="powerstroke" />
    <inkscape:path-effect
       effect="powerstroke"
       id="path-effect840"
       is_visible="true"
       offset_points="0.48517089,-1.5087789"
       sort_points="true"
       interpolator_type="CubicBezierJohan"
       interpolator_beta="0.2"
       start_linecap_type="zerowidth"
       linejoin_type="extrp_arc"
       miter_limit="4"
       end_linecap_type="zerowidth" />
    <inkscape:path-effect
       end_linecap_type="zerowidth"
       miter_limit="4"
       linejoin_type="extrp_arc"
       start_linecap_type="zerowidth"
       interpolator_beta="0.2"
       interpolator_type="CubicBezierJohan"
       sort_points="true"
       offset_points="0.48517089,-1.5087789"
       is_visible="true"
       id="path-effect836"
       effect="powerstroke" />
    <inkscape:path-effect
       effect="powerstroke"
       id="path-effect832"
       is_visible="true"
       offset_points="0.48517089,-1.5087789"
       sort_points="true"
       interpolator_type="CubicBezierJohan"
       interpolator_beta="0.2"
       start_linecap_type="zerowidth"
       linejoin_type="extrp_arc"
       miter_limit="4"
       end_linecap_type="zerowidth" />
    <inkscape:path-effect
       end_linecap_type="zerowidth"
       miter_limit="4"
       linejoin_type="extrp_arc"
       start_linecap_type="zerowidth"
       interpolator_beta="0.2"
       interpolator_type="CubicBezierJohan"
       sort_points="true"
       offset_points="0.48517089,-1.5087789"
       is_visible="true"
       id="path-effect824"
       effect="powerstroke" />
    <inkscape:path-effect
       effect="powerstroke"
       id="path-effect820"
       is_visible="true"
       offset_points="0.44838003,-1.735101"
       sort_points="true"
       interpolator_type="CubicBezierJohan"
       interpolator_beta="0.2"
       start_linecap_type="zerowidth"
       linejoin_type="extrp_arc"
       miter_limit="4"
       end_linecap_type="zerowidth" />
    <filter
       inkscape:collect="always"
       style="color-interpolation-filters:sRGB"
       id="filter903"
       x="-0.073196262"
       width="1.1463925"
       y="-0.052582212"
       height="1.1051644">
      <feGaussianBlur
         inkscape:collect="always"
         stdDeviation="3.411596"
         id="feGaussianBlur905" />
    </filter>
  </defs>
  <sodipodi:namedview
     id="base"
     pagecolor="#ffffff"
     bordercolor="#666666"
     borderopacity="1.0"
     inkscape:pageopacity="0.0"
     inkscape:pageshadow="2"
     inkscape:zoom="1.4"
     inkscape:cx="99.253031"
     inkscape:cy="125.02459"
     inkscape:document-units="mm"
     inkscape:current-layer="layer1"
     showgrid="false"
     inkscape:window-width="1920"
     inkscape:window-height="1016"
     inkscape:window-x="0"
     inkscape:window-y="27"
     inkscape:window-maximized="1"
     fit-margin-top="0"
     fit-margin-left="0"
     fit-margin-right="0"
     fit-margin-bottom="0" />
  <metadata
     id="metadata5">
    <rdf:RDF>
      <cc:Work
         rdf:about="">
        <dc:format>image/svg+xml</dc:format>
        <dc:type
           rdf:resource="http://purl.org/dc/dcmitype/StillImage" />
        <dc:title></dc:title>
      </cc:Work>
    </rdf:RDF>
  </metadata>
  <g
     inkscape:label="Layer 1"
     inkscape:groupmode="layer"
     id="layer1"
     transform="translate(-36.861326,-142.64416)">
    <path
       style="fill:#ff0000;fill-rule:evenodd;stroke:#000000;stroke-width:0.26458332px;stroke-linecap:butt;stroke-linejoin:miter;stroke-opacity:1"
       d="m 80.886906,164.51935 a 21.355656,20.599701 0 0 1 -21.355656,20.5997 21.355656,20.599701 0 0 1 -21.355656,-20.5997 21.355656,20.599701 0 0 1 21.355656,-20.5997 21.355656,20.599701 0 0 1 21.355656,20.5997 z"
       id="path815"
       inkscape:connector-curvature="0" />
    <path
       style="fill:#dc0000;fill-opacity:1;fill-rule:evenodd;stroke:none;stroke-width:1.03349209px;stroke-linecap:butt;stroke-linejoin:miter;stroke-opacity:1;filter:url(#filter903)"
       d="M 225,215.12891 A 80.71429,77.857138 0 0 0 144.28516,292.98633 80.71429,77.857138 0 0 0 225,370.84375 80.71429,77.857138 0 0 0 234.92578,370.1543 80.71429,77.857138 0 0 1 185.35742,298.34375 80.71429,77.857138 0 0 1 256.14648,221.17578 80.71429,77.857138 0 0 0 225,215.12891 Z"
       transform="matrix(0.25748421,0,0,0.25454232,1.8184125,89.968893)"
       id="path882"
       inkscape:connector-curvature="0" />
    <g
       id="g880"
       transform="matrix(0.46437649,0.37181977,-0.4252731,0.27068597,94.256113,84.646081)"
       style="stroke-width:1.87704456">
      <path
         transform="matrix(0.94497175,0.32715194,0.32715194,-0.94497175,-88.756617,243.45935)"
         sodipodi:nodetypes="cc"
         inkscape:original-d="m 114.14881,140.51786 c 3.58495,2.18829 0.99978,10.45431 3.02381,13.89063"
         inkscape:path-effect="#path-effect852"
         inkscape:connector-curvature="0"
         id="path850"
         d="m 114.14881,140.51786 c 0.31881,0.19461 0.79719,0.40667 1.33981,0.91943 0.40859,0.38611 0.78301,0.87838 1.11877,1.49514 0.7192,1.32108 1.12247,3.0003 1.14157,3.77981 0.002,0.0778 8.4e-4,0.16238 -0.003,0.25323 -0.0458,1.08408 -0.40851,2.49256 -0.67043,4.07549 -0.11015,0.66575 -0.18186,1.26803 -0.18861,1.80911 -0.009,0.7212 0.10319,1.24857 0.2857,1.55842 -0.17407,-0.29553 -0.51081,-0.74853 -0.84231,-1.429 -0.25711,-0.52774 -0.48909,-1.12791 -0.70505,-1.82823 -0.44365,-1.43868 -0.81134,-3.33233 -0.8791,-4.1264 -0.007,-0.086 -0.0121,-0.16577 -0.0139,-0.23872 -0.0186,-0.75795 0.30241,-2.20957 0.3584,-3.46212 0.0257,-0.5739 -0.005,-1.095 -0.12934,-1.55719 -0.16641,-0.61953 -0.48721,-1.05037 -0.81256,-1.24897 z"
         style="fill:#008000;fill-rule:nonzero;stroke:#000000;stroke-width:0.49663466px;stroke-linecap:butt;stroke-linejoin:miter;stroke-opacity:1" />
      <path
         style="fill:#008000;fill-rule:nonzero;stroke:#000000;stroke-width:0.49663466px;stroke-linecap:butt;stroke-linejoin:miter;stroke-opacity:1"
         d="m 114.14881,140.51786 c 0.31881,0.19461 0.79719,0.40667 1.33981,0.91943 0.40859,0.38611 0.78301,0.87838 1.11877,1.49514 0.7192,1.32108 1.12247,3.0003 1.14157,3.77981 0.002,0.0778 8.4e-4,0.16238 -0.003,0.25323 -0.0458,1.08408 -0.40851,2.49256 -0.67043,4.07549 -0.11015,0.66575 -0.18186,1.26803 -0.18861,1.80911 -0.009,0.7212 0.10319,1.24857 0.2857,1.55842 -0.17407,-0.29553 -0.51081,-0.74853 -0.84231,-1.429 -0.25711,-0.52774 -0.48909,-1.12791 -0.70505,-1.82823 -0.44365,-1.43868 -0.81134,-3.33233 -0.8791,-4.1264 -0.007,-0.086 -0.0121,-0.16577 -0.0139,-0.23872 -0.0186,-0.75795 0.30241,-2.20957 0.3584,-3.46212 0.0257,-0.5739 -0.005,-1.095 -0.12934,-1.55719 -0.16641,-0.61953 -0.48721,-1.05037 -0.81256,-1.24897 z"
         id="path854"
         inkscape:connector-curvature="0"
         inkscape:path-effect="#path-effect856"
         inkscape:original-d="m 114.14881,140.51786 c 3.58495,2.18829 0.99978,10.45431 3.02381,13.89063"
         sodipodi:nodetypes="cc"
         transform="matrix(0.69892471,0.5964165,0.63275485,-0.65878631,-103.6133,172.00414)" />
      <path
         transform="matrix(0.97529723,-0.24585875,-0.2208966,-1.0855095,-14.974857,328.83783)"
         sodipodi:nodetypes="cc"
         inkscape:original-d="m 114.14881,140.51786 c 3.58495,2.18829 0.99978,10.45431 3.02381,13.89063"
         inkscape:path-effect="#path-effect860"
         inkscape:connector-curvature="0"
         id="path858"
         d="m 114.14881,140.51786 c 0.31881,0.19461 0.79719,0.40667 1.33981,0.91943 0.40859,0.38611 0.78301,0.87838 1.11877,1.49514 0.7192,1.32108 1.12247,3.0003 1.14157,3.77981 0.002,0.0778 8.4e-4,0.16238 -0.003,0.25323 -0.0458,1.08408 -0.40851,2.49256 -0.67043,4.07549 -0.11015,0.66575 -0.18186,1.26803 -0.18861,1.80911 -0.009,0.7212 0.10319,1.24857 0.2857,1.55842 -0.17407,-0.29553 -0.51081,-0.74853 -0.84231,-1.429 -0.25711,-0.52774 -0.48909,-1.12791 -0.70505,-1.82823 -0.44365,-1.43868 -0.81134,-3.33233 -0.8791,-4.1264 -0.007,-0.086 -0.0121,-0.16577 -0.0139,-0.23872 -0.0186,-0.75795 0.30241,-2.20957 0.3584,-3.46212 0.0257,-0.5739 -0.005,-1.095 -0.12934,-1.55719 -0.16641,-0.61953 -0.48721,-1.05037 -0.81256,-1.24897 z"
         style="fill:#008000;fill-rule:nonzero;stroke:#000000;stroke-width:0.49663466px;stroke-linecap:butt;stroke-linejoin:miter;stroke-opacity:1" />
      <path
         style="fill:#008000;fill-rule:nonzero;stroke:#000000;stroke-width:0.49663466px;stroke-linecap:butt;stroke-linejoin:miter;stroke-opacity:1"
         d="m 114.14881,140.51786 c 0.31881,0.19461 0.79719,0.40667 1.33981,0.91943 0.40859,0.38611 0.78301,0.87838 1.11877,1.49514 0.7192,1.32108 1.12247,3.0003 1.14157,3.77981 0.002,0.0778 8.4e-4,0.16238 -0.003,0.25323 -0.0458,1.08408 -0.40851,2.49256 -0.67043,4.07549 -0.11015,0.66575 -0.18186,1.26803 -0.18861,1.80911 -0.009,0.7212 0.10319,1.24857 0.2857,1.55842 -0.17407,-0.29553 -0.51081,-0.74853 -0.84231,-1.429 -0.25711,-0.52774 -0.48909,-1.12791 -0.70505,-1.82823 -0.44365,-1.43868 -0.81134,-3.33233 -0.8791,-4.1264 -0.007,-0.086 -0.0121,-0.16577 -0.0139,-0.23872 -0.0186,-0.75795 0.30241,-2.20957 0.3584,-3.46212 0.0257,-0.5739 -0.005,-1.095 -0.12934,-1.55719 -0.16641,-0.61953 -0.48721,-1.05037 -0.81256,-1.24897 z"
         id="path862"
         inkscape:connector-curvature="0"
         inkscape:path-effect="#path-effect864"
         inkscape:original-d="m 114.14881,140.51786 c 3.58495,2.18829 0.99978,10.45431 3.02381,13.89063"
         sodipodi:nodetypes="cc"
         transform="rotate(116.97553,89.444994,129.53099)" />
      <path
         transform="matrix(-0.0896003,0.91442889,-0.91275359,-0.03548227,206.58333,46.804641)"
         sodipodi:nodetypes="cc"
         inkscape:original-d="m 114.14881,140.51786 c 3.58495,2.18829 0.99978,10.45431 3.02381,13.89063"
         inkscape:path-effect="#path-effect868"
         inkscape:connector-curvature="0"
         id="path866"
         d="m 114.14881,140.51786 c 0.31881,0.19461 0.79719,0.40667 1.33981,0.91943 0.40859,0.38611 0.78301,0.87838 1.11877,1.49514 0.7192,1.32108 1.12247,3.0003 1.14157,3.77981 0.002,0.0778 8.4e-4,0.16238 -0.003,0.25323 -0.0458,1.08408 -0.40851,2.49256 -0.67043,4.07549 -0.11015,0.66575 -0.18186,1.26803 -0.18861,1.80911 -0.009,0.7212 0.10319,1.24857 0.2857,1.55842 -0.17407,-0.29553 -0.51081,-0.74853 -0.84231,-1.429 -0.25711,-0.52774 -0.48909,-1.12791 -0.70505,-1.82823 -0.44365,-1.43868 -0.81134,-3.33233 -0.8791,-4.1264 -0.007,-0.086 -0.0121,-0.16577 -0.0139,-0.23872 -0.0186,-0.75795 0.30241,-2.20957 0.3584,-3.46212 0.0257,-0.5739 -0.005,-1.095 -0.12934,-1.55719 -0.16641,-0.61953 -0.48721,-1.05037 -0.81256,-1.24897 z"
         style="fill:#008000;fill-rule:nonzero;stroke:#000000;stroke-width:0.49663466px;stroke-linecap:butt;stroke-linejoin:miter;stroke-opacity:1" />
      <path
         style="fill:#008000;fill-rule:nonzero;stroke:#000000;stroke-width:0.49663466px;stroke-linecap:butt;stroke-linejoin:miter;stroke-opacity:1"
         d="m 114.14881,140.51786 c 0.31881,0.19461 0.79719,0.40667 1.33981,0.91943 0.40859,0.38611 0.78301,0.87838 1.11877,1.49514 0.7192,1.32108 1.12247,3.0003 1.14157,3.77981 0.002,0.0778 8.4e-4,0.16238 -0.003,0.25323 -0.0458,1.08408 -0.40851,2.49256 -0.67043,4.07549 -0.11015,0.66575 -0.18186,1.26803 -0.18861,1.80911 -0.009,0.7212 0.10319,1.24857 0.2857,1.55842 -0.17407,-0.29553 -0.51081,-0.74853 -0.84231,-1.429 -0.25711,-0.52774 -0.48909,-1.12791 -0.70505,-1.82823 -0.44365,-1.43868 -0.81134,-3.33233 -0.8791,-4.1264 -0.007,-0.086 -0.0121,-0.16577 -0.0139,-0.23872 -0.0186,-0.75795 0.30241,-2.20957 0.3584,-3.46212 0.0257,-0.5739 -0.005,-1.095 -0.12934,-1.55719 -0.16641,-0.61953 -0.48721,-1.05037 -0.81256,-1.24897 z"
         id="path870"
         inkscape:connector-curvature="0"
         inkscape:path-effect="#path-effect872"
         inkscape:original-d="m 114.14881,140.51786 c 3.58495,2.18829 0.99978,10.45431 3.02381,13.89063"
         sodipodi:nodetypes="cc"
         transform="matrix(-0.87298228,0.49955295,-0.5939917,-0.93504014,251.55026,221.25107)" />
    </g>
    <path
       transform="matrix(0.81438319,-0.26723427,0.2819418,0.77190076,-71.048362,70.949672)"
       sodipodi:nodetypes="cc"
       inkscape:original-d="m 114.14881,140.51786 c 3.58495,2.18829 0.99978,10.45431 3.02381,13.89063"
       inkscape:path-effect="#path-effect824"
       inkscape:connector-curvature="0"
       id="path822"
       d="m 114.14881,140.51786 c 0.31881,0.19461 0.79719,0.40667 1.33981,0.91943 0.40859,0.38611 0.78301,0.87838 1.11877,1.49514 0.7192,1.32108 1.12247,3.0003 1.14157,3.77981 0.002,0.0778 8.4e-4,0.16238 -0.003,0.25323 -0.0458,1.08408 -0.40851,2.49256 -0.67043,4.07549 -0.11015,0.66575 -0.18186,1.26803 -0.18861,1.80911 -0.009,0.7212 0.10319,1.24857 0.2857,1.55842 -0.17407,-0.29553 -0.51081,-0.74853 -0.84231,-1.429 -0.25711,-0.52774 -0.48909,-1.12791 -0.70505,-1.82823 -0.44365,-1.43868 -0.81134,-3.33233 -0.8791,-4.1264 -0.007,-0.086 -0.0121,-0.16577 -0.0139,-0.23872 -0.0186,-0.75795 0.30241,-2.20957 0.3584,-3.46212 0.0257,-0.5739 -0.005,-1.095 -0.12934,-1.55719 -0.16641,-0.61953 -0.48721,-1.05037 -0.81256,-1.24897 z"
       style="fill:#008000;fill-rule:nonzero;stroke:#000000;stroke-width:0.31534517px;stroke-linecap:butt;stroke-linejoin:miter;stroke-opacity:1" />
    <path
       style="fill:#008000;fill-rule:nonzero;stroke:#000000;stroke-width:0.31534517px;stroke-linecap:butt;stroke-linejoin:miter;stroke-opacity:1"
       d="m 114.14881,140.51786 c 0.31881,0.19461 0.79719,0.40667 1.33981,0.91943 0.40859,0.38611 0.78301,0.87838 1.11877,1.49514 0.7192,1.32108 1.12247,3.0003 1.14157,3.77981 0.002,0.0778 8.4e-4,0.16238 -0.003,0.25323 -0.0458,1.08408 -0.40851,2.49256 -0.67043,4.07549 -0.11015,0.66575 -0.18186,1.26803 -0.18861,1.80911 -0.009,0.7212 0.10319,1.24857 0.2857,1.55842 -0.17407,-0.29553 -0.51081,-0.74853 -0.84231,-1.429 -0.25711,-0.52774 -0.48909,-1.12791 -0.70505,-1.82823 -0.44365,-1.43868 -0.81134,-3.33233 -0.8791,-4.1264 -0.007,-0.086 -0.0121,-0.16577 -0.0139,-0.23872 -0.0186,-0.75795 0.30241,-2.20957 0.3584,-3.46212 0.0257,-0.5739 -0.005,-1.095 -0.12934,-1.55719 -0.16641,-0.61953 -0.48721,-1.05037 -0.81256,-1.24897 z"
       id="path830"
       inkscape:connector-curvature="0"
       inkscape:path-effect="#path-effect832"
       inkscape:original-d="m 114.14881,140.51786 c 3.58495,2.18829 0.99978,10.45431 3.02381,13.89063"
       sodipodi:nodetypes="cc"
       transform="matrix(0.60233815,-0.48718319,0.5453125,0.53813,-83.851958,129.31791)" />
    <path
       transform="matrix(0.84051789,0.20082987,-0.19037022,0.88669911,-7.4627312,1.2082095)"
       sodipodi:nodetypes="cc"
       inkscape:original-d="m 114.14881,140.51786 c 3.58495,2.18829 0.99978,10.45431 3.02381,13.89063"
       inkscape:path-effect="#path-effect836"
       inkscape:connector-curvature="0"
       id="path834"
       d="m 114.14881,140.51786 c 0.31881,0.19461 0.79719,0.40667 1.33981,0.91943 0.40859,0.38611 0.78301,0.87838 1.11877,1.49514 0.7192,1.32108 1.12247,3.0003 1.14157,3.77981 0.002,0.0778 8.4e-4,0.16238 -0.003,0.25323 -0.0458,1.08408 -0.40851,2.49256 -0.67043,4.07549 -0.11015,0.66575 -0.18186,1.26803 -0.18861,1.80911 -0.009,0.7212 0.10319,1.24857 0.2857,1.55842 -0.17407,-0.29553 -0.51081,-0.74853 -0.84231,-1.429 -0.25711,-0.52774 -0.48909,-1.12791 -0.70505,-1.82823 -0.44365,-1.43868 -0.81134,-3.33233 -0.8791,-4.1264 -0.007,-0.086 -0.0121,-0.16577 -0.0139,-0.23872 -0.0186,-0.75795 0.30241,-2.20957 0.3584,-3.46212 0.0257,-0.5739 -0.005,-1.095 -0.12934,-1.55719 -0.16641,-0.61953 -0.48721,-1.05037 -0.81256,-1.24897 z"
       style="fill:#008000;fill-rule:nonzero;stroke:#000000;stroke-width:0.31534517px;stroke-linecap:butt;stroke-linejoin:miter;stroke-opacity:1" />
    <path
       style="fill:#008000;fill-rule:nonzero;stroke:#000000;stroke-width:0.31534517px;stroke-linecap:butt;stroke-linejoin:miter;stroke-opacity:1"
       d="m 114.14881,140.51786 c 0.31881,0.19461 0.79719,0.40667 1.33981,0.91943 0.40859,0.38611 0.78301,0.87838 1.11877,1.49514 0.7192,1.32108 1.12247,3.0003 1.14157,3.77981 0.002,0.0778 8.4e-4,0.16238 -0.003,0.25323 -0.0458,1.08408 -0.40851,2.49256 -0.67043,4.07549 -0.11015,0.66575 -0.18186,1.26803 -0.18861,1.80911 -0.009,0.7212 0.10319,1.24857 0.2857,1.55842 -0.17407,-0.29553 -0.51081,-0.74853 -0.84231,-1.429 -0.25711,-0.52774 -0.48909,-1.12791 -0.70505,-1.82823 -0.44365,-1.43868 -0.81134,-3.33233 -0.8791,-4.1264 -0.007,-0.086 -0.0121,-0.16577 -0.0139,-0.23872 -0.0186,-0.75795 0.30241,-2.20957 0.3584,-3.46212 0.0257,-0.5739 -0.005,-1.095 -0.12934,-1.55719 -0.16641,-0.61953 -0.48721,-1.05037 -0.81256,-1.24897 z"
       id="path838"
       inkscape:connector-curvature="0"
       inkscape:path-effect="#path-effect840"
       inkscape:original-d="m 114.14881,140.51786 c 3.58495,2.18829 0.99978,10.45431 3.02381,13.89063"
       sodipodi:nodetypes="cc"
       transform="matrix(-0.39092414,-0.72797757,-0.76804263,0.37053152,216.97855,181.13076)" />
    <path
       transform="matrix(-0.07721816,-0.7469518,-0.78661735,0.02898371,183.47764,231.5872)"
       sodipodi:nodetypes="cc"
       inkscape:original-d="m 114.14881,140.51786 c 3.58495,2.18829 0.99978,10.45431 3.02381,13.89063"
       inkscape:path-effect="#path-effect844"
       inkscape:connector-curvature="0"
       id="path842"
       d="m 114.14881,140.51786 c 0.31881,0.19461 0.79719,0.40667 1.33981,0.91943 0.40859,0.38611 0.78301,0.87838 1.11877,1.49514 0.7192,1.32108 1.12247,3.0003 1.14157,3.77981 0.002,0.0778 8.4e-4,0.16238 -0.003,0.25323 -0.0458,1.08408 -0.40851,2.49256 -0.67043,4.07549 -0.11015,0.66575 -0.18186,1.26803 -0.18861,1.80911 -0.009,0.7212 0.10319,1.24857 0.2857,1.55842 -0.17407,-0.29553 -0.51081,-0.74853 -0.84231,-1.429 -0.25711,-0.52774 -0.48909,-1.12791 -0.70505,-1.82823 -0.44365,-1.43868 -0.81134,-3.33233 -0.8791,-4.1264 -0.007,-0.086 -0.0121,-0.16577 -0.0139,-0.23872 -0.0186,-0.75795 0.30241,-2.20957 0.3584,-3.46212 0.0257,-0.5739 -0.005,-1.095 -0.12934,-1.55719 -0.16641,-0.61953 -0.48721,-1.05037 -0.81256,-1.24897 z"
       style="fill:#008000;fill-rule:nonzero;stroke:#000000;stroke-width:0.31534517px;stroke-linecap:butt;stroke-linejoin:miter;stroke-opacity:1" />
    <path
       style="fill:#008000;fill-rule:nonzero;stroke:#000000;stroke-width:0.31534517px;stroke-linecap:butt;stroke-linejoin:miter;stroke-opacity:1"
       d="m 114.14881,140.51786 c 0.31881,0.19461 0.79719,0.40667 1.33981,0.91943 0.40859,0.38611 0.78301,0.87838 1.11877,1.49514 0.7192,1.32108 1.12247,3.0003 1.14157,3.77981 0.002,0.0778 8.4e-4,0.16238 -0.003,0.25323 -0.0458,1.08408 -0.40851,2.49256 -0.67043,4.07549 -0.11015,0.66575 -0.18186,1.26803 -0.18861,1.80911 -0.009,0.7212 0.10319,1.24857 0.2857,1.55842 -0.17407,-0.29553 -0.51081,-0.74853 -0.84231,-1.429 -0.25711,-0.52774 -0.48909,-1.12791 -0.70505,-1.82823 -0.44365,-1.43868 -0.81134,-3.33233 -0.8791,-4.1264 -0.007,-0.086 -0.0121,-0.16577 -0.0139,-0.23872 -0.0186,-0.75795 0.30241,-2.20957 0.3584,-3.46212 0.0257,-0.5739 -0.005,-1.095 -0.12934,-1.55719 -0.16641,-0.61953 -0.48721,-1.05037 -0.81256,-1.24897 z"
       id="path846"
       inkscape:connector-curvature="0"
       inkscape:path-effect="#path-effect848"
       inkscape:original-d="m 114.14881,140.51786 c 3.58495,2.18829 0.99978,10.45431 3.02381,13.89063"
       sodipodi:nodetypes="cc"
       transform="matrix(-0.75234216,-0.40806014,-0.51190615,0.76378812,222.23045,89.090523)" />
  </g>
</svg>
